<?xml version="1.0" standalone="no"?>
<!DOCTYPE svg PUBLIC "-//W3C//DTD SVG 20010904//EN"
 "http://www.w3.org/TR/2001/REC-SVG-20010904/DTD/svg10.dtd">
<svg version="1.0" xmlns="http://www.w3.org/2000/svg"
 width="60.000000pt" height="69.000000pt" viewBox="0 0 60.000000 69.000000"
 preserveAspectRatio="xMidYMid meet">

<g transform="translate(0.000000,69.000000) scale(0.100000,-0.100000)"
fill="#000000" stroke="none">
<path d="M0 345 l0 -345 300 0 300 0 0 345 0 345 -49 0 -50 0 -3 -37 -3 -38
-70 0 -70 0 -3 38 -3 37 -49 0 -49 0 -3 -37 -3 -38 -70 0 -70 0 -3 38 -3 37
-50 0 -49 0 0 -345z m325 30 c-4 -33 -7 -82 -6 -110 l2 -50 -20 20 c-13 12
-21 34 -21 55 0 31 7 177 10 190 0 3 10 -6 21 -20 19 -22 20 -33 14 -85z m-84
64 c6 -13 8 -38 4 -63 -4 -22 -7 -62 -7 -88 -1 -58 -21 -64 -38 -13 -9 27 -9
44 0 71 7 20 10 54 7 75 -6 44 14 55 34 18z m160 0 c7 -14 9 -39 4 -68 -4 -25
-7 -65 -7 -89 1 -50 -15 -53 -37 -7 -10 22 -11 36 -2 65 6 21 11 56 11 79 0
45 13 53 31 20z m-249 -152 c-29 -31 -28 -40 8 -70 66 -56 214 -56 280 0 36
30 37 39 8 70 -16 17 -19 26 -10 35 16 16 72 -43 72 -75 0 -37 -43 -83 -96
-103 -54 -21 -151 -23 -213 -5 -56 16 -111 69 -111 106 0 34 56 93 72 77 9 -9
6 -18 -10 -35z"/>
</g>
</svg>
