<?xml version="1.0" standalone="no"?>
<!DOCTYPE svg PUBLIC "-//W3C//DTD SVG 20010904//EN"
 "http://www.w3.org/TR/2001/REC-SVG-20010904/DTD/svg10.dtd">
<svg version="1.0" xmlns="http://www.w3.org/2000/svg"
 width="564.000000pt" height="370.000000pt" viewBox="0 0 564.000000 370.000000"
 preserveAspectRatio="xMidYMid meet">

<g transform="translate(0.000000,370.000000) scale(0.100000,-0.100000)"
fill="#000000" stroke="none">
<path d="M2690 3363 c1 -37 36 -157 48 -161 20 -6 25 24 17 103 -7 75 -7 75
-36 75 -21 0 -29 -5 -29 -17z"/>
<path d="M2450 3258 c-13 -5 -28 -14 -33 -21 -7 -9 -10 -9 -14 1 -6 14 -29 16
-38 2 -3 -5 -1 -38 5 -72 21 -121 20 -119 43 -116 19 3 21 8 17 38 -2 19 -4
55 -5 80 0 40 3 45 24 48 33 5 42 -8 55 -79 11 -63 20 -75 44 -60 11 7 11 20
2 72 -19 99 -45 127 -100 107z"/>
<path d="M2183 3198 c-28 -31 -34 -55 -27 -93 11 -60 63 -95 119 -81 27 7 65
39 65 56 0 15 -36 12 -50 -5 -16 -20 -54 -19 -75 1 -21 22 -16 25 58 39 58 10
62 13 59 36 -6 42 -40 69 -87 69 -30 0 -47 -6 -62 -22z m91 -27 c17 -19 16
-20 -26 -28 -35 -7 -44 -6 -47 6 -3 15 24 41 44 41 7 0 20 -9 29 -19z"/>
<path d="M2010 3183 c-30 -11 -50 -37 -50 -64 0 -33 23 -49 73 -49 40 0 63
-20 45 -38 -15 -15 -50 -16 -64 -2 -13 13 -46 2 -41 -14 6 -20 51 -36 82 -30
49 10 75 31 75 63 0 37 -18 51 -77 59 -33 5 -48 12 -48 22 0 12 11 14 53 12
56 -3 66 7 30 32 -23 16 -50 19 -78 9z"/>
<path d="M1541 3167 c-51 -18 -76 -58 -75 -121 0 -86 51 -142 126 -139 99 4
143 103 91 205 -25 51 -85 74 -142 55z m88 -61 c66 -71 11 -182 -74 -150 -22
9 -45 57 -45 97 0 69 73 102 119 53z"/>
<path d="M2732 3143 c2 -22 8 -28 28 -28 20 0 25 5 25 25 0 20 -6 26 -28 28
-26 3 -28 1 -25 -25z"/>
<path d="M1823 3150 c-12 -5 -26 -17 -32 -27 -10 -17 -10 -17 -11 0 0 10 -8
17 -20 17 -23 0 -25 -18 -9 -106 14 -83 18 -94 35 -94 23 0 27 24 14 85 -14
65 -3 88 39 83 24 -3 27 -9 40 -75 13 -70 22 -82 47 -65 15 9 -10 151 -29 168
-18 18 -49 24 -74 14z"/>
<path d="M1243 3122 c-27 -4 -28 -14 -8 -96 22 -86 22 -86 41 -79 14 5 15 17
9 82 -8 89 -12 97 -42 93z"/>
<path d="M705 3023 c-11 -3 -32 -17 -47 -31 -52 -49 -49 -143 7 -199 27 -27
41 -33 74 -33 74 0 121 41 121 105 0 47 -7 53 -57 44 -53 -10 -57 -13 -50 -32
4 -10 15 -13 32 -9 23 4 26 2 23 -19 -4 -30 -46 -54 -81 -45 -53 13 -77 116
-37 156 24 24 72 26 90 5 16 -19 55 -16 55 5 0 8 -15 25 -34 37 -33 22 -54 26
-96 16z"/>
<path d="M927 2980 c-32 -25 -42 -69 -27 -115 19 -58 79 -82 133 -53 34 18 46
40 47 85 0 87 -87 135 -153 83z m104 -64 c11 -41 -5 -76 -35 -76 -51 0 -76 85
-34 114 19 13 25 14 42 2 11 -7 23 -25 27 -40z"/>
<path d="M4062 2924 c-12 -8 -22 -21 -22 -29 0 -10 -7 -11 -35 -4 -42 12 -72
-1 -81 -35 -5 -21 -10 -23 -45 -19 -23 4 -45 1 -53 -7 -12 -9 -20 -8 -38 4
-33 24 -84 21 -102 -6 -12 -17 -24 -22 -53 -20 -43 4 -83 -25 -83 -58 0 -16
-7 -20 -38 -20 -45 0 -82 -32 -82 -72 0 -21 -4 -24 -23 -21 -14 3 -29 -2 -36
-11 -16 -19 -31 -21 -31 -3 0 8 -11 24 -25 37 -18 17 -31 21 -55 17 -29 -6
-30 -5 -30 28 0 37 -20 55 -62 55 -13 0 -32 7 -42 15 -32 24 -91 19 -114 -10
-11 -14 -28 -25 -39 -25 -29 0 -57 -25 -50 -43 4 -11 -1 -20 -13 -27 -21 -11
-27 -49 -10 -66 8 -8 6 -15 -5 -24 -8 -7 -15 -19 -15 -26 0 -8 -8 -14 -18 -14
-25 0 -42 -19 -42 -47 0 -20 -5 -23 -39 -23 -22 0 -43 -5 -47 -11 -4 -7 -17
-1 -35 17 -25 24 -33 26 -73 21 -26 -4 -48 -2 -51 3 -12 19 -54 10 -74 -16
-12 -15 -21 -33 -21 -40 0 -7 -10 -14 -22 -16 -16 -2 -24 -11 -26 -29 -3 -24
-9 -27 -51 -33 -68 -9 -108 -40 -167 -128 l-50 -76 -70 40 c-150 87 -216 96
-332 43 -75 -34 -110 -69 -188 -188 -89 -136 -114 -188 -114 -240 l0 -45 -61
-22 c-94 -35 -142 -86 -163 -172 -5 -21 -16 -30 -54 -42 -64 -22 -91 -42 -108
-82 -9 -21 -21 -34 -33 -34 -24 0 -37 -17 -45 -61 -6 -32 -11 -38 -40 -43 -19
-4 -39 -13 -46 -20 -26 -33 -80 -153 -80 -182 0 -31 32 -70 77 -93 12 -6 23
-21 25 -32 4 -30 44 -57 99 -67 25 -5 55 -18 66 -29 12 -12 44 -26 73 -32 29
-6 66 -23 82 -36 28 -24 36 -25 154 -25 71 0 134 -5 146 -11 11 -6 54 -13 96
-16 43 -2 113 -13 156 -24 44 -10 95 -19 114 -19 22 0 45 -9 66 -27 52 -44 87
-53 205 -53 87 0 113 3 126 16 11 12 19 13 29 5 7 -6 47 -17 89 -25 65 -13 90
-13 164 -2 48 7 90 10 93 5 24 -37 184 -32 236 7 31 23 33 23 65 6 53 -27 190
-23 251 6 26 13 52 21 57 17 18 -11 145 16 166 35 18 16 27 17 78 8 86 -15
201 -2 235 27 22 18 32 21 46 13 27 -15 132 -2 182 22 22 11 48 18 57 15 15
-6 78 7 126 27 14 6 51 10 82 9 46 -2 64 2 98 23 22 15 41 33 41 40 0 8 14 17
33 21 17 4 47 16 65 26 18 10 42 19 53 19 30 0 74 26 93 56 13 19 16 38 12 73
-9 72 -7 102 9 118 28 27 23 52 -21 115 -37 55 -42 73 -20 81 17 7 46 96 46
139 0 58 -32 158 -56 177 -14 11 -24 29 -24 44 0 14 -5 29 -10 32 -8 5 -7 11
1 21 9 11 8 19 -5 39 -9 13 -16 33 -16 44 0 11 -10 28 -23 38 -13 10 -27 31
-31 46 -3 15 -13 27 -21 27 -10 0 -15 10 -15 29 0 18 -8 34 -22 44 -30 20 -18
31 17 15 24 -11 29 -10 45 10 11 13 24 20 34 16 49 -19 101 48 92 117 -4 29
-1 37 17 44 16 7 22 19 23 42 0 17 6 38 13 47 10 12 11 23 3 46 -7 18 -7 32
-1 35 12 8 12 52 -1 60 -6 4 -5 13 2 25 9 14 9 22 -2 35 -7 9 -14 28 -15 42 0
13 -8 29 -17 34 -9 5 -19 20 -22 34 -4 15 -17 30 -31 35 -16 6 -25 17 -25 30
0 20 -36 43 -52 33 -5 -2 -8 3 -8 11 0 18 -27 46 -45 46 -7 0 -20 -7 -28 -15
-13 -13 -17 -13 -28 1 -7 9 -23 14 -36 11 -16 -3 -24 1 -28 14 -5 14 -16 19
-41 19 -19 0 -43 6 -55 13 -17 10 -22 9 -38 -12 -16 -21 -19 -21 -24 -6 -4 9
-7 25 -7 36 0 20 -34 27 -45 10 -3 -6 -17 -4 -33 5 -34 17 -33 17 -60 -2z m67
-21 c22 -15 25 -15 37 2 15 20 16 17 28 -37 8 -33 31 -36 47 -6 11 21 12 21
26 3 11 -16 17 -17 33 -7 25 15 50 5 50 -20 0 -16 5 -18 35 -12 31 5 35 4 41
-20 8 -33 22 -33 34 -1 13 34 50 34 50 1 0 -19 6 -25 28 -28 23 -2 28 -8 30
-36 3 -26 7 -32 21 -27 23 7 44 -18 36 -44 -4 -15 -1 -20 17 -23 18 -2 24 -10
26 -35 2 -18 7 -33 11 -33 4 0 7 -15 7 -32 0 -18 4 -41 8 -51 7 -14 4 -19 -13
-24 -25 -6 -27 -16 -6 -33 21 -18 19 -48 -5 -55 -24 -8 -26 -21 -4 -29 23 -9
13 -39 -16 -46 -20 -5 -25 -12 -23 -33 1 -15 -2 -27 -7 -27 -5 0 -13 -15 -18
-32 -7 -29 -13 -33 -41 -34 -25 -1 -35 4 -43 22 -9 19 -14 21 -25 12 -10 -8
-20 -8 -39 3 -24 12 -28 12 -44 -9 -22 -26 -33 -27 -65 -6 -30 20 -65 4 -65
-30 0 -28 -24 -51 -45 -42 -9 3 -18 -1 -21 -9 -4 -8 -17 -15 -30 -15 -27 0
-28 3 -13 31 15 29 -5 50 -42 42 -32 -6 -35 -2 -17 26 14 24 3 53 -19 50 -38
-3 -43 1 -37 30 4 17 1 32 -5 36 -9 5 -9 11 0 22 10 11 10 19 1 34 -11 17 -8
20 24 34 29 12 34 18 29 35 -4 14 -2 20 9 20 18 0 35 28 33 55 -1 13 3 19 13
16 59 -16 68 -14 72 15 2 23 7 29 26 27 24 -3 30 14 8 23 -22 8 -56 -14 -56
-36 0 -18 -5 -19 -40 -14 -41 7 -45 3 -41 -37 1 -9 -10 -24 -24 -33 -19 -12
-24 -23 -20 -37 5 -15 2 -19 -19 -19 -30 0 -51 -31 -34 -48 8 -8 8 -15 -1 -26
-7 -9 -9 -21 -5 -28 5 -7 8 -29 9 -48 0 -32 3 -35 33 -38 33 -3 41 -19 20 -41
-18 -18 17 -43 49 -35 26 7 28 2 11 -25 -16 -26 -3 -51 27 -51 30 0 33 -16 4
-23 -11 -3 -23 -15 -26 -26 -6 -24 -35 -28 -53 -6 -7 9 -22 12 -39 9 -22 -5
-31 -1 -44 20 -9 14 -17 32 -17 39 0 8 -9 22 -20 32 -11 10 -20 31 -20 46 0
23 -5 28 -27 31 -26 3 -28 6 -26 41 2 35 1 37 -29 37 -31 0 -31 0 -25 44 6 41
4 45 -16 48 -18 2 -21 9 -19 32 2 18 -4 36 -17 50 -25 26 -17 41 29 53 48 13
48 43 0 56 l-35 9 28 22 c34 27 34 35 0 62 -28 22 -28 22 -9 43 11 12 27 21
38 21 19 0 23 16 9 39 -18 28 6 53 47 49 33 -3 37 -1 34 18 -5 40 34 53 91 29
13 -5 17 -2 17 12 0 42 39 55 79 26z m-366 -74 c12 -7 25 -17 29 -23 5 -8 13
-7 28 2 26 16 25 17 25 -20 0 -25 -7 -37 -27 -50 -35 -22 -39 -71 -7 -88 20
-11 20 -12 -5 -31 -14 -11 -30 -18 -36 -14 -5 3 -19 1 -31 -5 -16 -9 -20 -18
-16 -40 8 -37 1 -41 -32 -22 -39 22 -61 10 -61 -32 l0 -34 -41 5 c-45 6 -63
-8 -53 -40 4 -13 0 -20 -14 -24 -25 -6 -37 -32 -22 -47 7 -7 4 -15 -11 -27
-29 -22 -20 -64 16 -73 26 -7 32 -20 15 -31 -17 -10 -11 -42 10 -56 13 -9 17
-19 12 -27 -7 -11 -25 -11 -93 -1 -100 15 -123 10 -183 -36 -26 -19 -54 -35
-64 -35 -10 0 -23 -5 -28 -10 -11 -11 -244 49 -244 63 0 4 6 7 14 7 10 0 16
14 18 43 3 41 4 42 35 39 28 -3 33 1 39 23 6 23 11 26 34 21 22 -4 32 0 44 19
11 16 22 22 35 18 16 -4 23 1 31 21 8 21 16 26 44 26 19 0 36 6 39 13 3 9 9 9
25 0 13 -8 23 -9 27 -3 9 14 53 12 58 -2 2 -7 8 -10 12 -6 4 4 2 14 -4 22 -13
16 -118 20 -127 5 -3 -5 -16 -9 -30 -9 -14 0 -36 -11 -50 -25 -14 -14 -33 -25
-44 -25 -10 0 -23 -8 -29 -17 -5 -10 -21 -17 -38 -18 -19 0 -31 -7 -38 -22 -6
-15 -18 -23 -35 -23 -35 0 -50 -17 -50 -57 0 -26 -4 -33 -19 -33 -11 0 -22 -4
-25 -8 -3 -5 -19 -7 -35 -4 -24 3 -31 10 -36 36 -4 17 -20 59 -36 92 -36 76
-36 89 -1 111 15 9 29 18 31 20 2 1 -2 10 -10 19 -11 14 -10 18 10 33 12 10
22 24 21 32 -5 31 1 39 30 39 25 0 30 4 30 25 0 13 8 28 17 34 17 9 16 11 -1
30 -15 17 -16 23 -6 36 7 8 19 15 27 15 9 0 13 9 11 28 -3 25 0 27 32 27 29 1
36 5 38 24 5 35 41 46 88 26 21 -10 52 -19 68 -21 39 -5 40 -8 41 -57 0 -32 3
-41 15 -38 53 14 68 12 84 -10 9 -13 16 -36 16 -51 0 -37 14 -35 37 3 15 25
23 30 46 25 15 -3 27 -2 28 2 0 4 2 20 3 36 3 40 40 68 85 64 33 -3 36 0 41
27 6 36 43 57 76 45 23 -9 26 -8 62 35 15 18 26 19 55 4z m42 -264 l47 -24
-29 -7 c-15 -4 -34 -11 -40 -17 -18 -14 -16 -54 3 -61 12 -4 14 -13 10 -31 -8
-30 8 -65 29 -65 11 0 13 -8 9 -30 -7 -34 9 -60 38 -60 15 0 18 -5 13 -20 -9
-29 12 -60 40 -60 21 0 25 -5 25 -30 0 -18 6 -33 15 -36 8 -4 15 -13 15 -22 0
-8 12 -31 26 -50 22 -28 31 -33 54 -28 19 3 33 0 41 -10 17 -21 52 -14 64 14
10 22 29 29 39 14 3 -5 8 -43 12 -85 l7 -77 -38 0 c-24 0 -58 -11 -93 -31 -30
-17 -55 -29 -57 -27 -1 2 -18 28 -37 58 -19 30 -44 63 -54 72 -31 27 -89 48
-134 48 -35 0 -46 6 -87 49 -37 38 -61 53 -105 66 -51 14 -58 19 -58 42 0 14
-8 31 -17 38 -15 11 -15 15 -4 29 17 21 8 43 -24 58 -31 14 -31 25 -3 48 19
15 20 20 9 34 -14 17 -8 31 12 31 7 0 14 16 17 35 4 29 9 35 28 33 12 -2 32
-4 45 -5 19 -3 22 2 23 31 0 41 14 48 48 25 37 -23 59 -4 50 42 -8 41 0 42 61
9z m-1243 -82 c16 -14 24 -15 52 -5 44 16 44 16 77 -19 28 -30 30 -31 54 -15
32 21 32 21 38 -11 4 -21 -1 -33 -20 -51 -22 -20 -29 -22 -56 -13 -16 6 -81
11 -143 11 -89 0 -114 3 -114 13 0 8 11 19 25 25 14 6 25 17 25 25 0 14 28 57
37 57 4 0 15 -8 25 -17z m143 -134 c32 -16 90 -113 100 -170 l7 -35 -114 -22
c-145 -29 -226 -67 -269 -127 -35 -48 -44 -53 -53 -30 -3 8 -20 22 -39 31 -18
9 -46 36 -61 61 -16 24 -44 56 -62 71 l-33 26 21 36 c41 68 100 139 121 146
101 32 327 40 382 13z m-727 -104 c20 -9 83 -43 139 -76 72 -44 110 -74 133
-105 l31 -44 -29 0 c-16 0 -35 6 -41 14 -7 8 -24 17 -39 21 -15 4 -34 12 -42
19 -32 28 -202 127 -208 122 -7 -7 -13 -2 83 -61 44 -26 88 -55 97 -63 16 -14
16 -16 -7 -34 -30 -24 -43 -82 -23 -106 10 -12 13 -36 10 -84 -3 -60 -6 -67
-28 -72 -13 -4 -41 -29 -61 -56 -30 -39 -42 -48 -58 -43 -11 4 -47 7 -79 9
-53 2 -61 5 -83 33 -14 17 -45 43 -69 57 -41 24 -52 26 -117 21 -40 -3 -80 -9
-91 -13 -17 -7 -18 -3 -14 48 3 40 14 69 42 114 143 228 160 247 262 289 68
28 138 32 192 10z m2643 -48 c-8 -8 -11 -7 -11 4 0 20 13 34 18 19 3 -7 -1
-17 -7 -23z m-174 7 c-3 -3 -12 -4 -19 -1 -8 3 -5 6 6 6 11 1 17 -2 13 -5z
m-156 -75 c-17 -23 -31 -35 -31 -26 0 9 5 19 10 22 6 4 18 23 27 43 11 26 17
32 20 20 2 -9 -10 -36 -26 -59z m262 35 c17 -4 33 -1 44 7 14 12 16 12 11 -1
-3 -9 -20 -16 -47 -18 -25 -2 -44 -9 -48 -18 -8 -21 -31 -17 -43 7 -9 16 -14
18 -26 8 -11 -9 -14 -8 -14 4 0 10 11 17 33 20 33 4 42 3 90 -9z m-138 -34 c0
-10 -8 -14 -23 -13 -16 2 -25 -4 -32 -22 -9 -25 -34 -33 -44 -16 -4 5 6 23 20
41 20 23 34 30 53 28 15 -2 26 -9 26 -18z m-838 -23 c88 -26 126 -46 143 -77
10 -19 8 -20 -77 -21 -131 0 -176 -11 -238 -54 -31 -21 -57 -36 -58 -34 -11
16 -30 68 -33 89 -2 14 -15 35 -29 48 -29 25 -26 35 19 64 26 17 43 19 111 14
44 -3 117 -16 162 -29z m-630 -6 c43 -10 104 -26 136 -36 52 -15 57 -19 57
-44 0 -16 -9 -36 -21 -47 -28 -25 -49 -75 -49 -118 0 -43 -6 -47 -55 -34 -34
9 -51 7 -119 -16 -69 -23 -81 -25 -95 -12 -41 36 -192 31 -238 -9 l-27 -23
-44 19 c-24 11 -52 19 -61 19 -28 0 -36 114 -11 155 46 75 114 113 253 145
107 24 178 24 274 1z m1303 -23 c4 -19 12 -32 20 -30 8 2 10 -3 6 -13 -3 -9
-6 -53 -6 -96 0 -96 -16 -98 -19 -3 -1 42 -7 72 -17 81 -14 15 -20 84 -7 96 9
10 14 2 23 -35z m179 6 c27 -6 31 -11 31 -39 0 -24 5 -34 20 -38 14 -3 20 -14
20 -31 0 -19 7 -29 25 -36 24 -9 29 -19 26 -48 -1 -8 5 -22 15 -33 13 -15 14
-22 5 -33 -8 -10 -9 -16 -1 -21 5 -3 10 -15 10 -26 0 -16 -4 -19 -22 -14 -13
4 -30 8 -38 11 -9 2 -31 -1 -50 -6 -31 -9 -37 -7 -58 15 -12 14 -45 36 -72 50
l-50 25 0 78 c1 80 13 112 44 112 9 0 24 9 33 20 20 22 19 22 62 14z m-1180
-25 c27 -9 60 -45 49 -53 -2 -2 -34 -1 -71 2 -56 4 -67 7 -65 20 2 12 38 39
54 42 1 0 15 -5 33 -11z m-1059 -29 c13 -8 12 -11 -5 -24 -11 -9 -25 -16 -31
-16 -6 0 -21 -11 -34 -25 -30 -32 -40 -32 -40 3 0 54 65 91 110 62z m137 -50
c18 -10 39 -33 48 -49 20 -39 21 -121 1 -121 -29 0 -64 19 -119 64 -56 46 -56
46 -75 26 -11 -12 -26 -18 -34 -15 -9 4 -19 1 -24 -6 -4 -7 -2 -15 4 -17 7 -2
12 -17 12 -33 0 -27 -2 -28 -20 -17 -25 16 -27 75 -5 119 32 61 148 88 212 49z
m956 -2 c27 -14 45 -49 52 -98 l6 -45 -15 32 c-36 79 -160 88 -216 15 l-20
-25 0 25 c0 38 41 91 80 105 35 12 80 9 113 -9z m555 1 c53 -10 71 -18 101
-48 33 -33 85 -120 77 -128 -1 -2 -24 0 -49 3 -39 6 -47 10 -47 27 0 23 -83
107 -105 107 -22 0 -19 -5 26 -35 34 -24 69 -69 69 -90 0 -3 -18 -5 -39 -5
-24 0 -61 -12 -97 -31 l-59 -31 -75 17 c-59 13 -85 14 -120 6 -47 -10 -46 -10
-143 54 -8 6 -17 22 -21 37 -5 23 0 32 39 63 25 21 62 43 82 51 48 17 271 18
361 3z m-572 -75 c27 -13 37 -26 49 -67 8 -28 15 -59 15 -69 0 -30 -29 -91
-57 -120 -52 -54 -120 -26 -157 64 -32 77 -15 153 42 186 45 26 63 27 108 6z
m-956 -88 c25 -14 37 -26 28 -26 -10 0 -18 -4 -18 -10 0 -5 6 -10 14 -10 8 0
18 5 21 10 14 22 23 8 18 -27 -12 -75 -55 -132 -100 -133 -17 0 -28 12 -45 48
-17 35 -28 47 -45 46 -32 -1 -43 81 -16 128 34 61 34 61 67 29 17 -16 51 -41
76 -55z m2006 10 c59 -27 94 -52 94 -67 0 -5 -15 -15 -34 -23 -37 -15 -61 -45
-71 -88 -4 -16 -11 -28 -16 -28 -4 0 -30 13 -55 30 -26 16 -62 33 -81 36 -28
5 -33 11 -39 41 -5 24 -16 41 -36 53 l-30 18 43 32 c41 30 49 32 105 27 37 -3
85 -15 120 -31z m-1284 -28 c9 -7 21 -30 28 -50 6 -21 17 -38 25 -38 12 0 25
-21 25 -41 0 -13 -69 -46 -113 -54 -21 -4 -71 -4 -113 0 -66 6 -74 9 -67 23 4
10 7 41 7 69 l-1 53 51 19 c28 10 58 21 66 24 27 10 76 7 92 -5z m-908 -40 c3
-16 2 -28 -3 -28 -11 0 -21 25 -21 53 0 27 15 11 24 -25z m661 17 c19 -18 25
-35 25 -70 0 -40 -4 -47 -32 -65 -62 -38 -100 -44 -157 -25 -48 15 -51 19 -49
48 1 18 -2 49 -6 69 -7 33 -6 38 21 52 18 10 55 15 101 16 64 0 76 -3 97 -25z
m570 -15 c-4 -17 -9 -29 -12 -26 -3 2 -2 19 2 36 4 17 9 29 12 26 3 -2 2 -19
-2 -36z m66 19 l30 -21 -26 -25 c-27 -27 -31 -53 -15 -84 8 -14 7 -19 -3 -19
-8 0 -35 -3 -61 -6 -39 -6 -46 -4 -46 10 0 20 28 66 51 83 9 7 20 28 23 48 4
19 9 35 12 35 3 0 19 -9 35 -21z m-1748 -5 c31 -16 107 -82 107 -94 0 -3 -24
-15 -52 -26 -40 -14 -79 -19 -158 -19 -102 0 -108 -1 -182 -37 -42 -21 -90
-38 -108 -38 -28 0 -31 2 -24 23 18 58 46 98 89 123 51 29 144 60 220 73 73
12 73 12 108 -5z m802 -5 c60 -22 85 -49 85 -91 0 -50 -30 -68 -111 -68 l-72
0 7 76 c5 65 17 104 32 104 2 0 28 -9 59 -21z m614 -29 c1 -13 0 -13 -9 0 -5
8 -9 24 -9 35 l0 20 9 -20 c5 -11 9 -27 9 -35z m968 30 c26 -9 34 -19 39 -47
5 -29 3 -38 -12 -46 -34 -19 -66 -58 -60 -72 4 -12 -7 -15 -65 -15 -39 0 -101
5 -138 11 -64 11 -70 14 -85 46 -31 65 -22 83 64 130 30 17 207 12 257 -7z
m-1977 -11 c0 -6 14 -24 31 -40 l31 -29 -23 -57 c-13 -32 -26 -62 -30 -67 -12
-14 -89 4 -89 21 0 8 -7 28 -17 43 -16 28 -15 29 21 78 34 46 48 59 69 61 4 1
7 -4 7 -10z m1564 -12 c48 -13 49 -14 63 -66 7 -30 12 -56 10 -58 -2 -2 -42
-9 -88 -15 -78 -10 -87 -9 -136 12 -28 12 -59 31 -69 41 -17 19 -17 21 3 47
35 47 125 63 217 39z m936 -10 c39 -19 47 -29 62 -72 21 -61 23 -154 4 -199
-18 -43 -33 -52 -54 -33 -9 8 -35 20 -58 26 -34 9 -43 17 -56 51 -19 46 -61
75 -124 85 -48 7 -50 11 -30 58 18 44 43 64 107 86 70 25 94 25 149 -2z
m-2369 -64 c6 -16 13 -74 16 -130 l4 -103 -25 0 c-33 0 -40 25 -34 141 3 57 1
86 -6 79 -5 -5 -9 -52 -8 -105 0 -52 -2 -95 -6 -95 -4 0 -17 -3 -29 -6 -21 -6
-23 -3 -23 35 0 44 32 151 56 189 20 30 42 28 55 -5z m-291 -13 c22 -11 47
-34 56 -51 16 -31 16 -31 -26 -74 -39 -39 -48 -44 -116 -54 -101 -15 -129 -15
-116 2 5 6 13 33 17 59 6 41 4 48 -14 60 -29 18 -27 23 22 41 108 41 127 42
177 17z m2299 -21 c45 -26 51 -33 38 -41 -10 -5 -27 -29 -40 -54 l-23 -44 -50
25 c-27 14 -63 39 -80 56 l-29 30 33 30 c42 38 82 37 151 -2z m-1863 -26 c-11
-11 -19 6 -11 24 8 17 8 17 12 0 3 -10 2 -21 -1 -24z m868 -10 c11 2 29 8 38
12 13 5 19 1 24 -19 4 -19 32 -42 105 -86 99 -62 157 -116 142 -131 -5 -5 -23
-12 -41 -15 -28 -6 -34 -4 -39 15 -3 11 -9 21 -14 21 -5 0 -7 -11 -3 -24 5
-20 1 -24 -23 -30 -71 -15 -226 -18 -318 -6 -94 12 -97 14 -92 36 5 29 -13 32
-20 4 -3 -11 -6 -20 -8 -20 -12 0 -65 24 -65 29 0 29 54 80 121 116 98 51 109
61 109 96 l0 30 31 -17 c17 -9 41 -14 53 -11z m-1549 3 c37 -11 40 -14 43 -52
2 -33 -3 -48 -24 -73 -36 -43 -66 -57 -158 -72 -74 -11 -81 -11 -90 6 -6 10
-31 45 -55 78 l-43 60 23 18 c13 10 42 25 64 33 49 18 185 19 240 2z m925 -1
c53 -19 101 -19 145 -1 23 10 44 12 63 7 69 -20 150 -23 212 -7 70 18 96 20
104 7 13 -21 -11 -44 -84 -81 -99 -50 -172 -132 -143 -161 5 -5 52 -19 104
-31 133 -30 328 -30 456 1 51 13 94 26 97 29 2 4 -3 22 -11 40 -10 25 -37 48
-106 92 -118 76 -137 89 -137 99 0 17 153 19 185 3 23 -12 51 -13 130 -8 128
9 117 10 210 -9 44 -8 111 -15 148 -14 63 2 72 0 110 -29 22 -18 56 -37 74
-44 27 -10 33 -17 33 -41 0 -25 7 -31 60 -54 49 -21 61 -32 70 -59 6 -18 17
-35 25 -38 8 -3 15 -16 15 -29 0 -14 7 -30 16 -38 9 -7 13 -21 10 -32 -3 -11
-1 -28 4 -38 8 -14 1 -24 -40 -53 -30 -21 -62 -36 -79 -36 -30 0 -76 -37 -86
-70 -5 -15 -18 -18 -88 -19 -120 -3 -127 -3 -187 4 -52 6 -58 5 -118 -34 -61
-40 -64 -41 -130 -35 -51 4 -85 0 -142 -16 -41 -11 -86 -20 -100 -19 -63 6
-119 1 -149 -14 -24 -12 -38 -14 -51 -7 -10 6 -56 10 -102 10 -66 0 -93 -5
-133 -24 -50 -23 -53 -23 -124 -9 -67 14 -76 14 -112 -2 l-39 -18 -20 26 c-29
37 -82 50 -186 46 -80 -4 -93 -7 -127 -33 -35 -27 -39 -27 -55 -13 -10 9 -39
26 -66 37 -40 18 -63 21 -144 19 -89 -3 -100 -1 -129 20 -29 22 -38 23 -101
17 -46 -5 -72 -3 -77 4 -11 18 -83 50 -112 50 -15 0 -46 -9 -69 -19 -38 -17
-44 -18 -125 -2 -63 12 -91 23 -112 43 -33 31 -74 42 -117 33 -21 -5 -39 -2
-56 10 -22 14 -24 21 -18 53 9 50 48 99 90 112 26 9 34 17 34 35 0 19 10 28
43 43 23 11 54 31 69 45 21 19 49 30 114 42 48 9 103 25 123 35 20 10 86 26
146 34 104 15 112 18 143 51 33 36 70 44 116 26 17 -7 14 -11 -26 -39 -65 -45
-98 -87 -98 -126 0 -31 3 -33 51 -44 28 -7 59 -12 70 -12 14 0 19 -7 19 -25 0
-18 7 -26 24 -31 38 -9 70 -1 80 22 8 19 20 22 100 27 50 3 130 15 179 27 97
25 99 28 67 97 -14 32 -31 49 -70 70 -78 42 -114 67 -112 77 1 5 40 10 87 10
52 1 89 6 97 14 15 15 7 15 58 -3z m-264 -22 c6 -18 32 -39 83 -67 76 -42 106
-72 116 -117 5 -22 2 -27 -17 -32 -17 -5 -28 0 -41 16 l-18 22 3 -24 c2 -20
-3 -26 -27 -33 -47 -12 -219 -28 -227 -20 -12 12 4 92 18 92 11 0 14 21 14 93
l0 92 43 2 c39 2 45 -1 53 -24z m2009 -4 c72 -18 96 -31 110 -60 8 -15 15 -32
15 -36 0 -4 -30 -9 -65 -9 -69 -2 -101 -18 -107 -55 -3 -18 -4 -18 -45 1 -48
21 -53 37 -28 97 30 72 48 81 120 62z m-2983 -72 c47 -55 75 -114 62 -134 -13
-21 -83 -63 -104 -62 -8 0 -27 17 -42 39 -21 30 -38 42 -79 54 -29 9 -65 16
-80 16 -39 0 -43 14 -14 48 26 31 83 59 150 72 54 10 75 4 107 -33z m743 -73
c14 -10 14 -19 4 -58 -12 -49 -22 -56 -38 -28 -9 13 -12 14 -19 4 -7 -11 -18
-11 -51 -2 -22 6 -41 13 -41 16 0 25 37 79 72 104 l43 31 7 -28 c4 -15 15 -33
23 -39z m2408 12 c49 -11 85 -35 87 -56 0 -3 -26 -5 -58 -5 -49 0 -68 -6 -111
-32 -29 -18 -59 -33 -67 -33 -19 0 -46 64 -42 98 2 18 11 28 28 33 41 11 101
10 163 -5z m-2342 -16 c15 -8 19 -21 19 -58 0 -78 -7 -92 -46 -92 -19 0 -34 5
-34 11 0 19 32 149 36 149 3 0 14 -5 25 -10z m-1021 -31 c71 -16 103 -36 133
-83 15 -23 27 -46 27 -50 0 -13 -74 -39 -78 -28 -8 26 -48 66 -78 78 -19 8
-58 14 -89 14 -55 0 -55 0 -55 30 0 47 48 60 140 39z m3446 -45 c47 -30 89
-87 80 -109 -8 -21 -20 -19 -31 7 -11 26 -43 35 -131 37 -52 1 -65 -3 -87 -23
-24 -22 -27 -23 -41 -7 -14 16 -13 20 17 49 30 29 113 70 142 72 6 0 29 -12
51 -26z m-3433 -62 c54 -36 69 -72 43 -107 -13 -19 -15 -19 -33 -3 -27 25 -69
38 -166 53 -49 7 -90 15 -93 18 -10 10 10 37 34 46 15 5 63 10 107 10 62 1 86
-3 108 -17z m3451 -32 c21 -8 26 -16 26 -45 0 -19 -2 -35 -3 -35 -2 0 -19 8
-38 17 -49 24 -122 22 -159 -5 -16 -12 -32 -22 -35 -22 -14 0 -2 42 21 69 24
29 30 31 94 31 38 0 80 -4 94 -10z m-3623 -40 c30 -5 71 -12 91 -15 48 -7 100
-50 96 -79 -3 -18 -9 -21 -49 -18 -64 5 -123 -13 -163 -48 -18 -17 -37 -30
-41 -30 -5 0 -23 11 -42 26 -26 20 -33 32 -33 60 0 54 37 114 70 114 9 0 41
-4 71 -10z m3594 -34 c38 -16 62 -47 71 -93 5 -25 0 -37 -26 -67 -20 -22 -41
-36 -56 -36 -21 0 -23 3 -14 26 26 66 4 95 -87 115 -29 7 -53 15 -53 18 0 3
15 16 33 29 36 25 83 28 132 8z m-58 -91 c22 -15 24 -22 20 -52 -7 -43 -31
-71 -74 -89 -53 -23 -66 -18 -95 35 -15 26 -34 54 -43 61 -22 18 -19 25 18 50
26 17 42 20 90 16 32 -2 69 -12 84 -21z m-3361 -21 c42 -20 43 -30 2 -38 -50
-10 -76 -32 -84 -71 -6 -35 -7 -35 -43 -29 -55 10 -91 32 -91 55 0 35 20 60
63 80 52 23 108 24 153 3z m3165 -51 c44 -51 66 -100 53 -121 -18 -30 -79 -54
-118 -47 -35 7 -35 7 -29 50 5 38 3 45 -21 60 -24 16 -25 18 -11 45 19 37 51
59 76 53 10 -3 33 -21 50 -40z m-2965 -6 l27 -24 -57 -6 c-76 -8 -104 -27
-112 -77 -7 -45 -21 -50 -79 -25 -41 17 -50 33 -41 79 7 37 28 50 106 65 84
16 127 13 156 -12z m400 -61 l34 -23 -35 -16 c-46 -22 -68 -58 -63 -102 5 -40
7 -39 -82 -24 -76 12 -87 20 -96 66 -8 43 -1 51 90 98 77 40 95 40 152 1z
m2209 6 c17 -8 33 -20 37 -26 11 -16 10 -94 -2 -116 -12 -22 -68 -40 -127 -40
-53 0 -73 8 -73 29 0 9 -11 36 -25 60 -14 23 -25 45 -25 47 0 2 24 19 53 39
45 31 57 35 92 29 22 -3 54 -13 70 -22z m218 -2 c30 -15 35 -42 15 -85 -8 -19
-25 -30 -65 -41 -30 -9 -65 -13 -79 -10 -21 6 -24 12 -24 54 0 26 -7 57 -15
69 -14 19 -13 22 2 27 30 8 136 -1 166 -14z m-2682 -1 l52 -11 -27 -17 c-32
-19 -41 -47 -27 -83 l10 -26 -74 -7 c-140 -13 -205 12 -205 78 0 40 9 53 40
66 34 13 168 13 231 0z m474 -52 l27 -23 -20 -34 c-11 -19 -23 -50 -27 -68 -4
-18 -12 -35 -19 -38 -7 -3 -48 2 -91 11 -131 27 -160 52 -127 109 35 60 205
89 257 43z m1776 -35 c33 -37 36 -67 10 -101 -15 -20 -29 -24 -103 -28 -47 -3
-106 -3 -131 1 -45 7 -46 8 -40 37 4 22 0 38 -16 60 -13 17 -20 33 -18 36 17
16 113 32 185 30 81 -2 85 -3 113 -35z m-1498 -2 c55 -26 67 -43 69 -103 3
-71 -18 -94 -98 -102 -91 -10 -158 0 -211 31 -44 26 -45 27 -41 68 12 101 61
140 168 133 39 -3 84 -13 113 -27z m338 10 c61 -11 83 -32 99 -91 13 -48 -7
-105 -42 -118 -67 -25 -272 -18 -303 11 -5 5 -8 37 -7 71 3 51 8 67 29 89 40
42 125 56 224 38z m817 -11 c57 -20 80 -85 45 -128 -21 -24 -117 -47 -157 -37
-22 5 -26 12 -26 46 0 21 -5 50 -11 64 -9 19 -9 29 0 40 21 25 98 33 149 15z
m-199 -25 c34 -28 57 -89 47 -127 -15 -60 -218 -83 -278 -30 -9 8 -18 33 -20
56 -3 23 -8 50 -12 59 -6 13 1 21 26 34 50 26 77 32 145 33 52 1 66 -3 92 -25z
m-314 -24 c30 -12 59 -72 51 -106 -11 -42 -61 -67 -145 -72 -94 -5 -123 10
-103 52 7 15 12 47 12 71 0 38 4 47 28 60 29 16 107 14 157 -5z"/>
<path d="M2683 2058 c-11 -13 -29 -37 -41 -54 -12 -18 -45 -47 -73 -65 -29
-18 -47 -35 -41 -37 13 -4 122 64 122 76 0 5 16 30 35 56 37 47 35 64 -2 24z"/>
<path d="M3148 1833 c7 -3 16 -2 19 1 4 3 -2 6 -13 5 -11 0 -14 -3 -6 -6z"/>
<path d="M3130 1800 c0 -14 29 -32 40 -25 17 11 11 22 -15 27 -14 3 -25 2 -25
-2z"/>
<path d="M3250 1784 c0 -9 7 -14 17 -12 25 5 28 28 4 28 -12 0 -21 -6 -21 -16z"/>
<path d="M3208 1713 c7 -3 16 -2 19 1 4 3 -2 6 -13 5 -11 0 -14 -3 -6 -6z"/>
<path d="M3195 1670 c3 -5 15 -10 26 -10 10 0 19 5 19 10 0 6 -12 10 -26 10
-14 0 -23 -4 -19 -10z"/>
<path d="M2208 1823 c7 -3 16 -2 19 1 4 3 -2 6 -13 5 -11 0 -14 -3 -6 -6z"/>
<path d="M2207 1784 c-4 -4 -4 -11 -1 -15 8 -14 31 -10 38 6 5 15 -24 22 -37
9z"/>
<path d="M2290 1709 c0 -5 5 -7 10 -4 6 3 10 8 10 11 0 2 -4 4 -10 4 -5 0 -10
-5 -10 -11z"/>
<path d="M2255 1670 c3 -5 15 -10 25 -10 10 0 22 5 25 10 4 6 -7 10 -25 10
-18 0 -29 -4 -25 -10z"/>
<path d="M2126 1552 c-8 -13 5 -82 15 -82 5 0 6 19 3 43 -8 47 -10 52 -18 39z"/>
<path d="M3874 1535 c-53 -22 -67 -91 -27 -137 10 -11 11 -18 4 -23 -14 -8
-14 -68 0 -82 8 -8 8 -21 -2 -46 -11 -30 -10 -39 5 -61 10 -15 26 -26 39 -26
21 1 21 1 -5 21 -31 23 -35 45 -14 75 12 15 12 22 2 34 -22 26 -25 47 -11 74
13 24 12 29 -5 46 -39 39 -20 96 39 118 14 5 20 11 15 14 -5 4 -23 0 -40 -7z"/>
<path d="M4055 1520 c-4 -6 0 -10 8 -10 21 0 57 -43 57 -69 0 -12 -11 -33 -24
-46 -20 -20 -24 -31 -19 -60 5 -29 1 -41 -17 -61 -18 -19 -21 -27 -12 -36 27
-27 7 -78 -30 -78 -10 0 -18 -4 -18 -10 0 -13 13 -13 45 2 28 12 41 45 30 77
-3 12 1 31 11 46 11 17 15 37 11 60 -3 20 -2 35 4 35 6 0 17 16 25 36 14 32
13 39 -3 71 -18 36 -57 61 -68 43z"/>
<path d="M2818 1493 c-55 -58 -42 -115 33 -154 43 -21 49 -23 49 -11 0 5 -17
17 -39 26 -68 31 -77 81 -23 139 14 15 21 27 16 27 -6 0 -22 -12 -36 -27z"/>
<path d="M3624 1500 c20 -75 19 -86 -13 -123 -18 -19 -53 -46 -78 -58 -26 -13
-42 -24 -36 -26 7 -3 27 3 45 13 93 47 124 94 107 160 -6 21 -16 44 -21 49 -7
7 -9 2 -4 -15z"/>
<path d="M3713 1451 l2 -73 -48 -44 c-51 -46 -48 -60 4 -21 47 33 72 90 64
140 -13 76 -24 75 -22 -2z"/>
<path d="M2608 1442 c34 -32 42 -46 42 -75 0 -39 -31 -72 -89 -96 -17 -8 -31
-17 -31 -22 0 -14 8 -11 62 18 88 48 101 122 32 182 -51 45 -65 38 -16 -7z"/>
<path d="M1888 1396 c-22 -46 -20 -75 6 -111 21 -29 31 -12 11 19 -20 30 -14
86 10 106 17 14 20 30 5 30 -6 0 -20 -20 -32 -44z"/>
<path d="M1816 1388 c-9 -35 -7 -76 4 -83 6 -4 10 10 10 34 0 21 3 46 6 55 3
9 2 16 -4 16 -5 0 -12 -10 -16 -22z"/>
<path d="M1650 1380 c0 -5 8 -10 18 -10 11 0 27 -9 37 -21 16 -17 17 -24 7
-52 -8 -20 -8 -35 -2 -41 13 -13 13 -63 -1 -71 -6 -5 -3 -13 10 -22 27 -18 27
-37 -1 -63 -17 -15 -18 -20 -6 -20 26 0 41 27 34 62 -4 18 -6 50 -6 70 0 20
-3 39 -8 42 -5 3 -7 27 -4 54 4 43 1 51 -19 66 -26 18 -59 21 -59 6z"/>
<path d="M1507 1343 c-27 -31 -26 -76 3 -100 11 -10 20 -28 20 -40 0 -13 9
-32 20 -43 12 -12 18 -25 15 -30 -19 -30 43 -86 68 -61 8 8 5 11 -10 11 -28 0
-46 24 -38 50 5 16 1 26 -14 36 -12 9 -21 26 -21 41 0 15 -10 33 -25 45 -30
24 -32 51 -5 78 11 11 20 22 20 25 0 11 -18 4 -33 -12z"/>
<path d="M2221 1282 c-1 -13 -6 -32 -12 -44 -16 -30 -3 -33 17 -4 13 21 14 32
6 49 l-11 22 0 -23z"/>
<path d="M2051 1269 c-1 -15 6 -32 14 -39 22 -18 32 -4 13 17 -9 10 -18 25
-21 33 -3 9 -6 4 -6 -11z"/>
<path d="M2253 1250 c-6 -16 -7 -32 -2 -35 4 -3 11 5 15 19 9 39 0 51 -13 16z"/>
<path d="M2676 1227 c-10 -7 -17 -24 -17 -38 0 -13 2 -49 4 -79 1 -30 -1 -65
-6 -76 -11 -26 7 -64 30 -64 15 0 15 2 0 18 -21 23 -21 36 -2 52 11 9 13 16 5
24 -5 5 -10 19 -10 31 0 12 5 26 10 31 8 8 6 15 -5 24 -29 24 -11 66 35 83 11
4 9 6 -6 6 -11 1 -28 -5 -38 -12z"/>
<path d="M2838 1200 c28 -26 29 -66 2 -80 -15 -8 -19 -17 -14 -35 4 -17 0 -29
-15 -41 -14 -12 -17 -21 -10 -30 13 -16 2 -39 -24 -52 -21 -10 -21 -11 -1 -11
26 -1 44 17 44 46 0 13 7 35 16 48 9 14 14 31 11 39 -3 8 3 22 14 32 10 9 19
28 19 41 0 24 -32 63 -52 63 -6 0 -2 -9 10 -20z"/>
<path d="M1265 2904 c-18 -19 -16 -33 7 -48 12 -7 21 -6 32 3 22 18 20 38 -3
51 -15 7 -24 6 -36 -6z"/>
</g>
</svg>
