<?xml version="1.0" standalone="no"?>
<!DOCTYPE svg PUBLIC "-//W3C//DTD SVG 20010904//EN"
 "http://www.w3.org/TR/2001/REC-SVG-20010904/DTD/svg10.dtd">
<svg version="1.0" xmlns="http://www.w3.org/2000/svg"
 width="405.000000pt" height="288.000000pt" viewBox="0 0 405.000000 288.000000"
 preserveAspectRatio="xMidYMid meet">

<g transform="translate(0.000000,288.000000) scale(0.100000,-0.100000)"
fill="#000000" stroke="none">
<path d="M1952 2698 c2 -18 -3 -23 -30 -29 -43 -9 -42 -9 -35 -52 4 -27 11
-37 24 -37 15 0 17 5 13 29 -6 28 -4 29 37 36 24 3 53 9 63 12 17 5 18 1 13
-32 -7 -40 -38 -81 -69 -91 -15 -4 -17 -9 -7 -20 16 -20 24 -18 62 16 34 29
57 87 57 141 0 20 -3 21 -45 16 -40 -6 -45 -5 -45 13 0 14 -7 20 -21 20 -15 0
-19 -5 -17 -22z"/>
<path d="M1689 2663 c-14 -3 -14 -11 -3 -66 6 -34 15 -79 18 -99 5 -28 12 -38
25 -38 17 0 18 5 10 38 -15 64 -14 65 42 57 46 -6 51 -5 47 11 -2 14 -17 21
-54 28 -46 7 -52 12 -60 40 -6 21 -14 31 -25 29z"/>
<path d="M1406 2603 c-13 -13 -5 -29 25 -47 31 -18 59 -10 44 13 -9 16 -61 41
-69 34z"/>
<path d="M1542 2541 c-20 -34 -47 -59 -81 -79 -45 -25 -50 -31 -36 -42 12 -10
22 -10 39 -2 69 31 150 138 122 161 -10 9 -20 0 -44 -38z"/>
<path d="M1184 2574 c-6 -2 -9 -18 -6 -34 3 -25 0 -31 -22 -40 -14 -5 -26 -14
-26 -19 0 -17 19 -22 40 -11 18 10 20 7 26 -28 10 -66 19 -71 97 -58 27 4 51
14 54 22 8 22 2 23 -50 11 -53 -12 -62 -7 -70 39 -5 26 -2 33 19 43 37 17 46
14 34 -9 -11 -20 -6 -40 9 -40 5 0 18 21 29 48 26 59 13 70 -51 43 -49 -21
-57 -19 -57 16 0 23 -5 26 -26 17z"/>
<path d="M2302 2430 c-18 -22 -53 -51 -78 -66 -36 -21 -42 -29 -33 -40 12 -14
16 -13 61 18 30 21 30 21 43 -54 5 -34 22 -48 37 -33 3 3 0 33 -8 67 l-12 62
30 34 c23 27 27 37 16 43 -19 13 -20 12 -56 -31z"/>
<path d="M1995 2398 c-4 -13 -19 -40 -33 -61 -33 -50 -17 -72 21 -28 14 17 27
34 29 39 1 5 18 12 36 15 33 7 39 -2 26 -37 -4 -12 -11 -13 -32 -5 -36 14 -51
-11 -16 -29 22 -11 23 -16 12 -29 -7 -9 -26 -24 -42 -34 -27 -17 -28 -17 -8
-28 18 -9 26 -6 58 24 21 20 43 34 50 31 7 -3 18 1 24 9 8 10 7 16 -5 22 -13
8 -14 15 -5 37 5 15 10 39 10 53 0 25 -2 25 -46 19 -38 -5 -45 -3 -40 9 3 10
-1 15 -14 15 -11 0 -21 -9 -25 -22z"/>
<path d="M1744 2345 c6 -22 3 -26 -24 -31 -35 -7 -42 -15 -31 -32 6 -10 15
-10 35 -2 38 14 46 13 46 -9 0 -14 -9 -21 -31 -26 -29 -7 -48 -29 -35 -42 3
-3 24 1 45 9 l40 16 12 -35 c8 -24 15 -33 26 -29 8 3 16 6 18 6 2 0 -2 15 -10
34 l-15 35 35 11 c43 14 50 46 8 35 -46 -12 -57 -11 -61 6 -2 11 7 20 27 27
18 6 31 18 31 28 0 11 -5 14 -16 10 -43 -16 -61 -17 -67 -2 -4 9 -14 16 -23
16 -12 0 -15 -6 -10 -25z"/>
<path d="M1562 2300 c-18 -22 -53 -51 -77 -65 -29 -17 -42 -31 -38 -41 7 -19
12 -18 55 11 l37 25 7 -51 c6 -46 25 -72 41 -56 3 3 0 34 -6 68 -10 59 -9 63
15 92 24 29 27 48 8 54 -5 1 -24 -15 -42 -37z"/>
<path d="M2879 1962 c-8 -13 -20 -17 -46 -14 -28 4 -35 1 -40 -17 -4 -15 -13
-21 -32 -20 -14 1 -33 -1 -42 -5 -10 -4 -20 -3 -24 3 -9 16 -63 13 -72 -3 -4
-8 -24 -16 -43 -18 -25 -2 -38 -10 -45 -25 -5 -13 -18 -23 -28 -23 -29 0 -54
-18 -61 -42 -3 -13 -17 -28 -30 -34 -22 -10 -27 -9 -41 12 -9 14 -25 24 -40
24 -17 0 -25 6 -27 22 -2 16 -16 27 -53 40 -64 23 -82 23 -97 -2 -7 -11 -23
-20 -35 -20 -13 0 -24 -4 -24 -10 -1 -5 -2 -15 -3 -20 0 -6 -7 -14 -14 -19 -8
-5 -13 -17 -12 -27 5 -47 0 -63 -22 -66 -15 -2 -24 -11 -26 -26 -3 -18 -8 -21
-27 -16 -12 3 -26 1 -29 -5 -4 -6 -15 -2 -27 10 -16 16 -29 20 -51 15 -18 -3
-37 -1 -45 5 -10 9 -18 8 -33 -6 -11 -10 -20 -24 -20 -32 0 -7 -7 -13 -15 -13
-9 0 -19 -8 -22 -17 -8 -23 -23 -33 -50 -33 -29 0 -78 -43 -109 -95 l-25 -44
-72 40 c-87 47 -137 50 -212 15 -57 -27 -66 -35 -130 -131 -64 -96 -75 -119
-75 -157 0 -31 -4 -35 -60 -60 -55 -24 -63 -31 -86 -82 -14 -31 -30 -56 -36
-56 -24 0 -76 -33 -86 -55 -6 -13 -20 -26 -32 -30 -12 -4 -23 -18 -27 -35 -3
-20 -14 -32 -32 -38 -18 -6 -36 -27 -54 -62 -39 -75 -36 -110 14 -136 16 -8
29 -21 29 -29 0 -18 39 -45 66 -45 12 0 32 -8 45 -19 13 -10 40 -22 59 -26 19
-4 43 -15 54 -24 14 -12 39 -16 105 -16 47 0 91 -4 97 -7 5 -4 35 -10 65 -13
121 -14 225 -38 259 -61 29 -20 47 -24 115 -24 44 0 87 4 95 10 9 6 19 5 28
-3 9 -7 57 -12 126 -12 61 -1 119 -5 129 -10 28 -12 127 2 147 20 15 14 22 15
42 4 30 -17 136 -16 167 1 14 7 49 14 79 16 29 3 63 9 75 16 12 6 63 12 113
12 59 1 96 6 107 14 9 8 46 14 86 15 39 2 76 8 83 15 7 7 27 12 45 12 19 0 48
6 66 14 18 7 47 11 64 9 33 -5 91 19 100 43 3 7 13 14 22 14 10 0 26 7 37 15
10 8 29 15 41 15 12 0 36 12 53 27 31 25 32 28 25 80 -5 45 -3 58 11 74 17 19
17 21 -3 47 -42 57 -45 70 -23 92 36 36 25 185 -16 214 -8 6 -16 28 -17 48 -1
20 -6 40 -10 44 -4 4 -7 15 -7 25 0 10 -10 25 -22 33 -12 9 -19 16 -15 16 9 0
-19 54 -43 83 -13 17 -13 18 12 12 15 -4 29 -2 32 4 4 6 18 11 31 11 30 0 55
35 55 75 0 19 7 35 19 42 13 8 18 24 19 60 0 26 1 50 2 53 7 17 5 82 -2 86 -4
3 -8 14 -8 25 0 11 -7 22 -15 25 -8 4 -15 15 -15 26 0 11 -8 22 -20 25 -11 3
-20 12 -20 20 0 8 -9 17 -19 20 -11 3 -21 13 -24 24 -5 20 -32 26 -42 9 -4 -6
-14 -5 -28 2 -44 22 -53 26 -95 33 -32 5 -42 4 -42 -7 -1 -7 -8 0 -16 15 -11
21 -19 26 -28 18 -7 -6 -17 -6 -26 -1 -23 15 -39 12 -51 -8z m51 -4 c17 -11
22 -10 30 2 8 12 10 10 10 -8 0 -27 28 -41 42 -21 7 11 11 11 15 2 3 -8 14
-11 29 -7 17 4 26 1 30 -10 4 -11 13 -15 26 -10 14 4 21 0 25 -15 7 -27 20
-27 28 -1 3 11 11 20 17 20 5 0 12 -9 15 -20 3 -11 14 -20 24 -20 13 0 19 -7
19 -24 0 -16 5 -23 17 -22 10 0 19 -8 21 -19 3 -11 11 -24 19 -30 7 -6 15 -26
16 -45 1 -19 6 -41 11 -49 6 -9 3 -17 -7 -23 -14 -7 -15 -12 -5 -28 11 -16 9
-22 -7 -34 -11 -9 -14 -16 -7 -16 20 0 14 -31 -9 -37 -11 -3 -18 -11 -15 -19
6 -15 -21 -74 -35 -74 -5 0 -18 9 -29 20 -10 10 -22 15 -25 10 -4 -6 -14 -5
-26 3 -17 10 -22 9 -35 -8 -12 -16 -18 -18 -34 -7 -30 18 -40 15 -51 -18 -7
-19 -18 -30 -29 -30 -10 0 -20 -5 -22 -12 -3 -7 -12 -9 -22 -5 -15 6 -16 10
-6 22 14 17 4 37 -18 34 -30 -3 -35 1 -22 16 15 18 5 35 -21 35 -16 0 -19 5
-14 19 3 11 2 22 -2 24 -5 3 -8 18 -8 34 1 21 7 29 23 31 14 2 22 11 22 23 0
10 4 19 9 19 5 0 11 10 13 23 2 17 9 21 29 19 20 -2 28 2 32 19 4 15 11 20 22
15 9 -3 13 -2 10 4 -10 17 -37 11 -42 -9 -3 -14 -13 -19 -31 -18 -19 2 -27 -4
-30 -18 -2 -11 -10 -24 -18 -28 -8 -4 -14 -14 -14 -21 0 -8 -8 -16 -19 -19
-16 -4 -18 -13 -17 -63 2 -50 6 -61 24 -69 14 -6 20 -16 17 -26 -6 -18 20 -34
36 -23 6 3 7 -5 3 -21 -5 -21 -2 -27 14 -32 20 -5 20 -5 -1 -26 -12 -12 -26
-20 -32 -18 -5 2 -21 5 -35 6 -17 1 -30 12 -40 31 -8 16 -18 31 -21 34 -4 3
-9 16 -10 30 -3 17 -9 24 -21 22 -18 -3 -22 7 -19 41 2 11 -5 17 -20 17 -18 0
-21 5 -17 29 3 23 0 31 -15 35 -13 3 -17 10 -13 24 4 11 0 24 -9 32 -19 16 -3
40 26 40 25 0 24 27 -1 35 -25 8 -26 21 -2 34 16 10 16 12 0 25 -24 18 -23 43
2 51 22 7 23 11 9 40 l-9 20 3 -20 c1 -11 -8 -29 -21 -40 -25 -22 -22 -51 6
-58 13 -3 11 -6 -8 -14 -14 -6 -33 -14 -42 -17 -11 -3 -18 -15 -18 -31 0 -23
-2 -25 -21 -15 -29 16 -52 5 -44 -20 6 -18 2 -20 -26 -18 -26 2 -34 -1 -37
-17 -2 -11 -11 -25 -19 -32 -9 -7 -13 -19 -9 -29 4 -10 0 -21 -11 -29 -15 -11
-15 -14 5 -31 14 -12 20 -25 16 -40 -4 -14 0 -23 10 -27 9 -4 16 -11 16 -17 0
-8 -24 -9 -77 -5 -72 7 -80 5 -108 -16 -55 -44 -85 -49 -169 -25 -47 14 -72
26 -67 32 5 5 11 20 13 34 2 19 8 24 24 23 15 -2 24 4 27 18 4 15 11 19 25 15
13 -4 22 -1 26 9 3 8 14 15 25 15 10 0 21 7 25 15 3 8 14 15 24 15 10 0 22 3
26 7 12 12 70 12 84 1 8 -7 12 -7 12 0 0 19 -84 29 -95 12 -3 -6 -17 -10 -31
-10 -14 0 -27 -7 -30 -15 -4 -8 -14 -15 -24 -15 -11 0 -22 -4 -25 -10 -3 -5
-15 -10 -27 -10 -11 0 -22 -8 -25 -19 -3 -12 -11 -17 -23 -14 -20 5 -46 -30
-35 -47 8 -13 -40 -31 -60 -24 -8 4 -15 11 -15 16 0 6 -12 37 -27 70 l-27 60
23 17 c13 10 20 23 16 33 -4 9 0 18 10 22 9 3 15 14 13 23 -2 12 4 19 20 21
14 2 22 10 22 22 0 10 6 20 13 23 9 3 9 8 -3 21 -13 16 -12 20 3 31 9 7 17 20
17 29 0 10 8 16 25 16 15 0 25 6 25 14 0 24 20 29 64 16 58 -17 68 -23 77 -48
6 -15 5 -21 -1 -17 -6 3 -10 1 -10 -5 0 -8 9 -10 24 -6 35 9 54 -2 61 -35 8
-34 21 -38 30 -9 5 14 14 20 28 18 17 -2 23 3 25 22 4 29 27 50 57 50 11 0 24
10 30 23 7 16 19 22 44 23 20 0 37 7 43 17 9 17 39 23 52 10 5 -5 31 -8 59 -8
43 0 53 3 58 20 4 16 13 20 41 18 28 -2 37 2 41 17 6 23 19 25 47 8z m-218
-238 c28 -17 30 -20 12 -20 -32 0 -51 -27 -36 -51 7 -10 12 -28 12 -39 0 -11
7 -23 16 -27 9 -3 14 -13 11 -25 -3 -10 2 -26 12 -36 10 -9 21 -25 24 -35 4
-11 16 -21 27 -24 11 -3 20 -11 20 -18 0 -15 41 -95 49 -96 29 -4 49 -8 68
-14 16 -5 25 -3 29 9 3 9 12 16 20 16 10 0 14 -15 14 -60 l0 -60 -34 0 c-18 0
-45 -9 -59 -20 l-25 -20 -21 34 c-37 60 -70 85 -119 92 -34 4 -57 16 -82 39
-19 18 -54 39 -76 45 -32 10 -40 17 -37 30 3 10 -2 20 -12 24 -15 5 -15 9 -4
22 11 14 10 19 -11 36 -19 15 -21 21 -11 28 8 4 12 17 8 29 -3 14 0 21 9 21 8
0 14 10 14 26 0 23 3 25 33 22 28 -3 32 0 35 25 4 29 11 34 29 16 20 -20 44
-3 37 26 -8 31 4 32 48 5z m-775 -76 c11 -15 17 -16 32 -7 21 13 31 8 31 -16
0 -29 -32 -40 -86 -30 -27 5 -73 7 -101 3 -55 -7 -71 6 -34 26 11 5 22 19 26
29 5 17 14 19 62 16 41 -2 61 -8 70 -21z m18 -80 c21 -21 52 -83 56 -113 4
-23 0 -25 -66 -37 -98 -16 -150 -40 -188 -85 l-33 -38 -40 38 c-21 21 -54 54
-72 75 l-33 37 39 57 c47 69 77 80 224 81 76 1 100 -2 113 -15z m-494 -79 c93
-46 139 -77 160 -107 12 -16 18 -32 15 -35 -7 -7 -60 19 -121 58 -83 53 -115
70 -115 62 0 -4 30 -25 65 -47 36 -21 65 -41 65 -44 0 -3 -7 -13 -16 -23 -16
-18 -16 -22 -8 -111 4 -42 2 -58 -6 -58 -7 0 -29 -18 -49 -40 -33 -36 -40 -40
-63 -31 -14 5 -35 7 -47 4 -16 -4 -34 6 -67 37 l-46 43 -69 -6 -69 -6 0 28 c0
25 15 53 98 186 30 49 67 78 127 102 48 18 93 15 146 -12z m1609 -32 c-1 -13
-40 -56 -45 -51 -3 3 1 11 10 18 8 7 15 19 15 26 0 8 5 14 10 14 6 0 10 -3 10
-7z m140 -12 c0 -5 -6 -14 -14 -20 -10 -9 -16 -8 -26 4 -7 8 -17 12 -23 8 -6
-3 -7 -1 -3 5 8 14 66 16 66 3z m-80 -26 c0 -8 -6 -12 -14 -9 -8 3 -19 -4 -26
-16 -9 -17 -15 -19 -23 -10 -9 9 -5 17 16 36 29 25 47 24 47 -1z m-610 -6 c68
-16 93 -26 115 -50 l29 -29 -96 0 c-90 0 -97 -2 -136 -30 -40 -28 -42 -29 -52
-11 -5 11 -10 28 -10 39 0 10 -9 27 -20 37 -26 23 -25 27 8 47 35 23 57 22
162 -3z m-363 -21 c47 -13 88 -28 90 -35 3 -7 -6 -26 -20 -42 -13 -16 -27 -48
-31 -70 -6 -41 -7 -42 -39 -36 -21 4 -51 0 -83 -13 -44 -16 -54 -17 -69 -5
-28 20 -128 17 -155 -5 -21 -17 -26 -17 -65 -3 -39 14 -43 19 -48 56 -14 96
108 172 277 174 32 1 96 -9 143 -21z m873 -28 c3 -3 2 -32 -1 -65 -5 -49 -6
-52 -7 -19 -1 22 -9 55 -17 71 -9 17 -12 39 -8 49 6 16 8 15 17 -7 6 -13 13
-26 16 -29z m120 20 c11 -6 17 -17 14 -25 -4 -8 1 -18 10 -21 9 -3 16 -15 16
-25 0 -10 6 -19 14 -19 15 0 24 -20 30 -66 2 -16 6 -35 8 -43 6 -27 -86 -13
-146 22 l-55 32 -1 53 c0 49 3 54 30 70 16 9 30 20 30 25 0 10 28 9 50 -3z
m-806 -26 c9 -8 16 -17 16 -19 0 -2 -22 -2 -50 -2 -46 2 -61 13 -43 30 12 13
62 7 77 -9z m-770 0 c24 -9 19 -20 -14 -34 -16 -7 -30 -16 -30 -21 0 -5 -4 -9
-10 -9 -16 0 -12 37 6 54 17 18 24 19 48 10z m105 -39 c33 -17 41 -33 41 -85
0 -38 0 -39 -29 -29 -15 5 -42 24 -59 40 -29 29 -33 30 -61 18 -25 -11 -29
-17 -24 -41 5 -23 3 -27 -11 -22 -18 7 -21 40 -7 78 19 48 96 69 150 41z m650
4 c31 -11 51 -41 51 -76 0 -11 -6 -8 -21 11 -15 20 -29 26 -58 26 -37 0 -81
-22 -81 -41 0 -6 12 -1 26 10 34 27 78 27 104 1 45 -45 19 -166 -40 -185 -27
-9 -67 21 -79 58 -5 18 -12 57 -15 88 -5 47 -3 61 14 82 11 14 30 28 43 30 12
2 22 5 23 6 1 0 16 -4 33 -10z m422 -9 c35 -10 70 -44 98 -97 11 -21 9 -23
-13 -23 -14 0 -31 7 -38 16 -33 42 -77 84 -87 84 -7 0 7 -19 31 -41 l43 -41
-47 -12 c-25 -7 -58 -20 -72 -29 -19 -13 -31 -15 -51 -7 -15 6 -53 10 -85 10
-67 0 -124 27 -134 62 -3 12 -4 23 -3 24 96 69 81 64 206 64 64 0 132 -5 152
-10z m-1067 -120 c6 0 4 -5 -4 -11 -12 -9 -11 -10 8 -6 35 8 30 -46 -7 -84
-34 -34 -55 -30 -70 12 -7 19 -17 29 -30 29 -18 0 -21 6 -21 40 0 23 7 52 16
65 l16 25 41 -35 c22 -19 45 -35 51 -35z m1386 13 c30 -16 55 -33 57 -38 2 -6
-10 -16 -27 -23 -18 -8 -34 -26 -41 -46 l-12 -32 -46 22 c-25 13 -54 25 -63
28 -10 3 -18 14 -18 25 0 11 -9 26 -21 34 -20 15 -20 15 7 36 38 30 98 28 164
-6z m-892 -24 c2 -5 7 -7 12 -4 4 3 6 -3 3 -13 -2 -10 3 -24 11 -31 25 -21 19
-41 -19 -57 -39 -16 -137 -19 -165 -4 -13 7 -29 5 -54 -5 -29 -12 -45 -13 -75
-5 -36 10 -39 13 -44 58 -7 60 7 72 84 72 67 0 84 -14 84 -70 0 -21 3 -36 8
-33 5 3 7 21 5 41 -3 35 -1 36 47 54 49 17 97 16 103 -3z m-638 -27 c0 -7 -4
-10 -10 -7 -5 3 -10 16 -10 28 0 18 2 19 10 7 5 -8 10 -21 10 -28z m857 16
c-3 -8 -6 -5 -6 6 -1 11 2 17 5 13 3 -3 4 -12 1 -19z m48 2 c10 -11 13 -20 7
-20 -20 0 -34 -38 -22 -60 10 -19 8 -20 -35 -20 -44 0 -45 1 -34 23 6 12 20
30 30 40 11 10 19 27 19 37 0 25 12 25 35 0z m435 -3 c34 -16 36 -48 5 -77
-14 -13 -25 -30 -25 -38 0 -12 -13 -14 -74 -9 -96 8 -121 19 -134 55 -12 35 0
51 58 77 38 17 125 13 170 -8z m-1634 -8 c19 -11 38 -29 44 -38 13 -25 -47
-45 -140 -46 -62 0 -85 -5 -129 -27 -67 -35 -95 -37 -86 -5 18 60 65 94 168
122 73 19 105 18 143 -6z m552 1 c35 -16 42 -24 42 -48 0 -40 -17 -52 -71 -52
-42 0 -47 2 -52 26 -6 34 10 94 26 94 7 0 31 -9 55 -20z m-288 0 c0 -5 9 -18
20 -28 19 -18 19 -20 3 -63 -9 -24 -18 -45 -19 -47 -1 -2 -13 0 -28 4 -34 8
-61 60 -44 83 40 54 68 75 68 51z m1080 -6 c24 -5 36 -15 46 -41 8 -19 12 -38
9 -42 -3 -5 -31 -12 -64 -16 -49 -6 -65 -3 -100 14 -93 48 -14 109 109 85z
m654 -8 c40 -17 56 -55 56 -131 0 -38 -6 -60 -20 -76 -10 -13 -19 -19 -20 -12
0 7 -17 17 -37 24 -27 8 -42 20 -53 42 -11 24 -27 36 -60 47 -25 8 -47 16 -49
17 -2 1 2 17 9 34 9 21 27 38 54 50 49 22 76 23 120 5z m-1644 -52 c6 -14 10
-55 10 -90 0 -57 -2 -65 -17 -62 -15 3 -18 15 -18 80 0 42 -3 74 -7 71 -5 -2
-8 -35 -8 -74 0 -64 -2 -69 -21 -69 -19 0 -21 4 -16 38 6 48 42 132 57 132 6
0 15 -12 20 -26z m-183 -16 c29 -27 29 -49 1 -76 -22 -20 -90 -41 -135 -42
-19 0 -21 4 -16 40 4 25 1 46 -7 55 -10 13 -7 17 21 30 51 22 108 19 136 -7z
m1574 1 l41 -20 -19 -22 c-11 -12 -23 -30 -26 -40 -6 -17 -8 -17 -44 2 -21 10
-47 29 -58 41 l-20 22 24 19 c30 24 52 24 102 -2z m-1288 -4 c-3 -9 -8 -14
-10 -11 -3 3 -2 9 2 15 9 16 15 13 8 -4z m-461 -26 c43 -23 4 -102 -60 -118
-105 -28 -105 -28 -142 31 -19 29 -36 56 -38 59 -2 5 40 26 88 43 21 8 130 -3
152 -15z m986 -2 c2 -11 -15 -25 -56 -46 -55 -28 -102 -74 -102 -99 0 -26 176
-57 279 -49 213 17 230 46 84 140 -40 26 -73 51 -73 57 0 14 96 13 136 -2 23
-8 51 -9 96 -2 44 6 77 5 108 -3 25 -6 72 -12 106 -12 50 -1 71 -7 117 -33 35
-21 56 -40 57 -51 0 -12 14 -25 40 -35 24 -11 41 -25 45 -39 3 -13 10 -23 15
-23 6 0 10 -8 10 -18 0 -10 4 -22 9 -28 4 -5 11 -23 14 -39 5 -26 1 -33 -29
-53 -18 -12 -42 -22 -53 -22 -11 0 -31 -14 -45 -31 -24 -28 -32 -31 -94 -33
-37 -1 -81 2 -99 7 -25 6 -42 3 -72 -12 -22 -12 -42 -25 -46 -31 -3 -5 -36
-10 -73 -10 -37 0 -83 -5 -102 -11 -19 -6 -59 -11 -88 -10 -34 2 -62 -3 -77
-13 -15 -10 -26 -12 -30 -6 -9 15 -136 11 -165 -5 -18 -10 -43 -12 -91 -8 -37
3 -74 1 -84 -4 -13 -8 -22 -5 -39 12 -42 42 -169 42 -216 0 -16 -15 -21 -14
-56 10 -34 23 -47 26 -111 24 -55 -2 -78 2 -99 16 -20 13 -39 16 -75 12 -29
-4 -51 -2 -55 5 -4 5 -22 16 -40 24 -29 12 -38 12 -73 -2 -32 -13 -49 -13 -97
-5 -32 6 -67 20 -79 31 -15 14 -35 20 -66 20 -49 0 -69 13 -69 44 1 27 38 72
68 81 13 4 22 14 22 26 0 10 7 19 15 19 8 0 29 13 47 29 23 20 49 31 83 36 28
4 66 15 85 25 20 10 69 21 110 25 63 6 78 12 102 36 23 23 35 27 58 22 28 -5
43 -23 20 -23 -5 0 -25 -14 -45 -31 -48 -43 -49 -85 -2 -94 56 -11 67 -16 67
-30 0 -7 7 -16 16 -19 23 -9 54 2 54 20 0 10 13 14 50 14 72 0 200 30 200 47
0 34 -34 75 -85 104 -30 17 -55 34 -55 39 0 12 161 18 197 7 23 -7 40 -7 57 1
15 7 58 9 113 5 51 -3 99 -1 113 5 31 13 44 10 48 -11z m88 7 c17 4 26 1 33
-13 6 -10 42 -37 80 -60 60 -35 91 -64 91 -84 0 -3 -12 -7 -26 -10 -17 -3 -28
0 -31 11 -5 12 -8 11 -14 -5 -6 -17 -19 -21 -86 -27 -43 -3 -107 -2 -143 4
-36 5 -68 10 -72 10 -4 0 -4 8 -1 18 6 15 5 15 -10 4 -9 -8 -25 -11 -37 -7
l-20 6 21 30 c11 16 47 43 80 59 41 21 60 37 65 55 5 21 9 23 26 14 11 -6 31
-8 44 -5z m-633 -13 c2 -11 27 -31 53 -44 51 -26 76 -49 87 -80 9 -23 -18 -34
-40 -16 -15 12 -16 12 -11 -3 8 -20 -11 -26 -109 -35 -81 -7 -86 -2 -58 51 8
15 15 52 15 81 0 48 3 54 23 58 12 2 25 5 28 6 4 0 9 -8 12 -18z m1432 -15
c27 -12 55 -41 55 -58 0 -2 -21 -4 -46 -5 -47 -2 -74 -16 -74 -39 0 -12 -5
-12 -30 1 -34 17 -36 31 -16 80 13 29 20 35 46 35 17 0 46 -6 65 -14z m-2087
-70 c18 -27 31 -54 29 -60 -2 -6 -20 -20 -41 -31 l-37 -20 -22 26 c-27 33 -50
45 -105 54 -41 7 -43 8 -29 28 18 28 92 57 137 54 30 -2 40 -9 68 -51z m493
-16 c13 0 11 -58 -3 -66 -6 -4 -14 -2 -16 5 -3 10 -6 10 -12 2 -10 -17 -60 -3
-60 18 0 21 8 32 45 60 30 23 30 23 33 2 2 -12 8 -21 13 -21z m1711 -5 c34
-13 27 -30 -13 -31 -23 -1 -54 -11 -77 -26 -20 -14 -42 -23 -49 -21 -13 5 -38
71 -30 80 20 20 116 19 169 -2z m-1656 -5 c5 -5 8 -30 6 -55 -4 -40 -7 -45
-28 -45 -27 0 -28 4 -13 66 12 45 18 51 35 34z m-665 -35 c26 -14 59 -55 59
-74 0 -5 -9 -13 -21 -16 -15 -5 -29 1 -50 21 -22 21 -43 30 -82 34 -45 4 -52
8 -49 25 2 11 9 24 15 28 16 10 95 -1 128 -18z m2383 -47 c9 -12 16 -31 16
-42 0 -20 0 -20 -15 0 -26 38 -142 39 -166 2 -3 -5 -11 -3 -17 5 -15 18 21 54
74 72 44 15 81 3 108 -37z m-2410 -23 c28 -25 32 -41 16 -65 -7 -12 -12 -12
-29 4 -14 12 -49 23 -101 30 -46 6 -79 15 -77 21 7 20 53 35 108 35 46 0 61
-5 83 -25z m2394 -17 c7 -7 12 -21 12 -31 0 -15 -4 -17 -17 -11 -38 16 -101
16 -127 -1 -31 -20 -36 -4 -10 33 13 18 25 22 73 22 31 0 62 -5 69 -12z
m-2428 -47 c14 -10 26 -28 28 -40 3 -19 0 -21 -22 -15 -39 9 -92 -4 -125 -31
l-29 -25 -26 21 c-30 23 -33 47 -10 90 l15 31 72 -7 c44 -4 82 -14 97 -24z
m2409 -6 c49 -25 55 -73 15 -110 -36 -34 -46 -31 -39 8 8 43 -12 65 -67 74
l-41 6 22 19 c28 22 72 23 110 3z m-64 -49 c19 -8 35 -20 35 -26 0 -30 -32
-69 -65 -80 -20 -7 -37 -10 -39 -8 -1 1 -15 23 -30 47 l-29 45 23 18 c27 22
59 23 105 4z m-2307 -28 c11 -10 7 -14 -24 -23 -28 -8 -40 -17 -44 -35 -7 -30
-31 -36 -71 -20 -33 14 -37 39 -10 64 39 35 114 42 149 14z m2170 -14 c12 -8
31 -33 42 -54 l20 -39 -27 -21 c-17 -13 -38 -20 -57 -18 -28 3 -31 6 -28 36 3
22 -1 34 -12 38 -20 8 -20 24 0 52 18 26 32 28 62 6z m-2048 -18 c9 -12 5 -16
-27 -22 -47 -8 -73 -30 -73 -61 0 -20 -4 -23 -22 -18 -13 4 -31 9 -41 12 -14
4 -17 13 -15 41 3 33 7 38 43 48 56 17 120 17 135 0z m81 -37 c46 -10 51 -13
36 -24 -10 -7 -17 -26 -17 -43 0 -29 -2 -30 -50 -37 -81 -11 -140 11 -140 53
0 28 16 44 51 52 49 11 62 11 120 -1z m200 -9 c19 -15 21 -19 7 -20 -24 0 -60
-50 -55 -77 5 -26 -5 -28 -67 -13 -73 17 -77 65 -8 103 56 32 92 34 123 7z
m1534 8 c46 -21 46 -101 -1 -118 -14 -6 -42 -10 -63 -10 -35 0 -40 3 -63 48
l-25 48 31 21 c35 24 83 29 121 11z m162 -10 c34 -34 -22 -88 -92 -88 -22 0
-25 4 -25 39 0 22 -5 43 -10 46 -6 4 -7 11 -4 17 10 15 112 4 131 -14z m-1547
-26 c20 -17 21 -19 6 -47 -8 -17 -18 -38 -21 -49 -5 -16 -12 -18 -60 -13 -132
13 -155 81 -39 112 67 19 88 18 114 -3z m1235 -28 c14 -15 25 -32 25 -38 -1
-40 -78 -65 -165 -52 -41 7 -45 10 -45 36 0 16 -4 32 -10 35 -34 21 22 43 113
44 50 1 61 -2 82 -25z m-1027 -5 c42 -26 47 -105 8 -131 -20 -13 -146 -9 -175
6 -45 24 -51 36 -35 81 7 22 21 46 31 53 23 17 139 11 171 -9z m267 -14 c29
-28 34 -85 10 -108 -19 -19 -94 -30 -152 -21 -73 10 -81 17 -79 69 2 66 28 84
124 85 64 0 76 -3 97 -25z m543 5 c48 -45 13 -100 -63 -100 -40 0 -41 1 -53
47 -12 42 -11 49 4 60 27 20 87 16 112 -7z m-149 -14 c17 -18 22 -33 19 -62
-3 -38 -4 -39 -57 -52 -44 -11 -60 -11 -94 0 -36 12 -41 17 -52 62 l-12 48 31
14 c17 7 56 13 87 14 46 0 59 -4 78 -24z m-229 -9 c13 -7 29 -25 34 -40 14
-40 -20 -73 -83 -80 -72 -9 -94 0 -85 32 4 14 7 39 8 54 1 15 8 32 16 37 21
14 80 12 110 -3z"/>
<path d="M1911 1349 c-10 -17 -35 -42 -56 -56 -20 -13 -34 -27 -31 -30 8 -9
63 35 96 77 17 22 27 40 21 40 -6 0 -20 -14 -30 -31z"/>
<path d="M2245 1180 c3 -5 10 -10 16 -10 5 0 9 5 9 10 0 6 -7 10 -16 10 -8 0
-12 -4 -9 -10z"/>
<path d="M2320 1180 c0 -5 4 -10 9 -10 6 0 13 5 16 10 3 6 -1 10 -9 10 -9 0
-16 -4 -16 -10z"/>
<path d="M2290 1096 c7 -7 14 -6 21 1 9 9 7 12 -9 10 -14 -1 -18 -5 -12 -11z"/>
<path d="M1595 1170 c4 -6 11 -8 16 -5 14 9 11 15 -7 15 -8 0 -12 -5 -9 -10z"/>
<path d="M1638 1098 c9 -9 15 -9 24 0 9 9 7 12 -12 12 -19 0 -21 -3 -12 -12z"/>
<path d="M1543 995 c0 -22 2 -30 4 -17 2 12 2 30 0 40 -3 9 -5 -1 -4 -23z"/>
<path d="M2735 990 c-13 -14 -15 -27 -10 -47 4 -15 6 -41 6 -57 0 -16 4 -36 8
-45 6 -9 5 -23 -1 -34 -10 -20 13 -67 34 -67 7 0 2 9 -11 21 -20 19 -21 23 -7
43 13 21 13 25 -2 40 -14 13 -14 20 -4 36 10 17 9 25 -4 45 -20 31 -11 61 24
74 23 8 24 10 6 10 -11 1 -29 -8 -39 -19z"/>
<path d="M2022 977 c-30 -32 -28 -71 4 -96 15 -12 34 -21 42 -21 8 0 0 10 -19
23 -41 27 -48 58 -19 87 12 12 20 24 18 26 -3 2 -14 -6 -26 -19z"/>
<path d="M2905 975 c30 -29 31 -39 6 -64 -13 -13 -17 -27 -13 -46 3 -20 0 -32
-12 -41 -14 -9 -15 -17 -7 -31 11 -22 5 -35 -24 -51 -15 -9 -16 -11 -4 -12 26
0 51 35 44 63 -4 14 -2 28 4 31 6 4 11 19 11 34 0 15 7 36 15 46 8 11 15 28
15 38 0 19 -33 58 -50 58 -5 0 2 -11 15 -25z"/>
<path d="M2586 954 c5 -37 3 -43 -30 -72 -20 -18 -43 -32 -51 -32 -8 0 -15 -4
-15 -9 0 -16 36 -1 74 31 28 23 36 37 36 61 0 18 -5 39 -10 47 -7 11 -8 3 -4
-26z"/>
<path d="M2646 952 c5 -39 3 -45 -30 -78 -20 -20 -34 -39 -32 -42 3 -2 21 11
41 31 36 36 44 70 24 112 -6 14 -7 8 -3 -23z"/>
<path d="M1878 936 c17 -20 32 -41 32 -47 0 -12 -46 -58 -75 -76 -11 -6 -15
-12 -9 -12 22 -2 79 45 88 71 11 31 -9 70 -46 89 -19 10 -17 5 10 -25z"/>
<path d="M1375 910 c-18 -34 -13 -61 13 -81 14 -11 15 -11 5 1 -16 18 -17 72
-1 88 6 6 9 14 6 18 -4 3 -14 -8 -23 -26z"/>
<path d="M1326 905 c-3 -9 -6 -26 -5 -38 1 -16 4 -12 10 12 10 34 6 55 -5 26z"/>
<path d="M1220 893 c27 -10 40 -34 29 -55 -7 -14 -7 -23 1 -34 7 -7 9 -21 6
-30 -4 -9 -1 -23 6 -31 9 -11 9 -19 -1 -35 -10 -16 -10 -19 1 -16 13 5 14 20
6 129 -5 66 -12 79 -41 78 -15 0 -17 -2 -7 -6z"/>
<path d="M1099 859 c-9 -18 -7 -27 10 -50 12 -15 21 -34 21 -42 0 -7 4 -17 9
-23 5 -5 11 -20 13 -34 2 -18 10 -26 28 -27 l25 -3 -24 10 c-17 7 -22 16 -18
31 3 12 0 22 -9 26 -8 3 -14 15 -14 28 0 13 -7 25 -15 29 -18 7 -20 47 -3 64
9 9 9 12 0 12 -6 0 -16 -10 -23 -21z"/>
<path d="M1486 831 c-3 -4 1 -17 8 -27 13 -17 14 -17 9 9 -6 29 -9 32 -17 18z"/>
<path d="M1597 813 c-7 -36 -2 -41 13 -13 8 14 8 26 2 32 -6 6 -11 -1 -15 -19z"/>
<path d="M1631 823 c0 -6 -4 -20 -7 -30 -5 -14 -4 -15 5 -7 7 7 11 20 8 30 -3
11 -5 14 -6 7z"/>
<path d="M1916 778 c-3 -13 -4 -54 -3 -92 1 -51 6 -71 17 -74 12 -4 13 -2 4 9
-12 15 -13 77 -1 96 4 6 3 14 -3 18 -18 11 -11 45 13 55 l22 9 -22 0 c-16 1
-24 -6 -27 -21z"/>
<path d="M2030 782 c0 -6 5 -14 10 -17 15 -9 12 -42 -4 -48 -9 -4 -12 -14 -9
-26 3 -13 0 -23 -9 -26 -10 -4 -13 -15 -11 -30 4 -16 0 -25 -14 -28 -15 -4
-16 -5 -1 -6 15 -1 34 20 37 41 7 44 15 69 22 74 14 9 10 50 -6 64 -9 8 -15 9
-15 2z"/>
</g>
</svg>
