<?xml version="1.0" standalone="no"?>
<!DOCTYPE svg PUBLIC "-//W3C//DTD SVG 20010904//EN"
 "http://www.w3.org/TR/2001/REC-SVG-20010904/DTD/svg10.dtd">
<svg version="1.0" xmlns="http://www.w3.org/2000/svg"
 width="75.000000pt" height="80.000000pt" viewBox="0 0 75.000000 80.000000"
 preserveAspectRatio="xMidYMid meet">

<g transform="translate(0.000000,80.000000) scale(0.100000,-0.100000)"
fill="#000000" stroke="none">
<path d="M578 783 c-8 -10 -26 -37 -38 -60 -14 -25 -31 -43 -41 -43 -25 0 -53
-48 -38 -66 14 -17 43 -18 68 -2 16 10 26 8 54 -7 21 -11 43 -16 58 -12 34 9
99 65 99 86 0 17 -116 121 -136 121 -6 0 -18 -8 -26 -17z m110 -76 l33 -34
-42 -33 c-39 -31 -43 -33 -73 -21 -51 21 -75 24 -91 11 -8 -6 -19 -9 -24 -6
-15 9 -3 33 19 39 10 3 35 30 55 61 l36 57 27 -20 c15 -11 42 -35 60 -54z"/>
<path d="M455 582 c-6 -4 -28 -45 -50 -92 -23 -47 -45 -92 -50 -101 -9 -15
-59 -53 -197 -150 -90 -62 -74 -103 28 -73 52 15 55 15 93 -7 51 -28 75 -19
166 64 67 62 67 62 76 132 14 114 11 201 -7 219 -16 17 -42 20 -59 8z m47
-141 c-3 -135 -12 -160 -85 -217 -82 -65 -90 -67 -132 -43 -33 20 -40 21 -96
9 -33 -7 -61 -11 -64 -8 -2 2 48 41 111 87 63 46 122 94 132 106 9 12 35 59
57 104 32 65 44 81 60 79 19 -3 20 -10 17 -117z"/>
<path d="M22 148 c-18 -18 -15 -56 9 -105 23 -49 55 -57 88 -24 16 16 18 26
10 67 -5 27 -17 55 -26 62 -21 15 -65 16 -81 0z m72 -30 c34 -48 10 -120 -29
-88 -18 15 -38 77 -31 95 8 22 43 18 60 -7z"/>
<path d="M201 142 c-43 -21 -56 -42 -47 -75 8 -34 43 -36 97 -5 44 25 49 48
17 78 -26 24 -25 24 -67 2z m53 -18 c9 -3 16 -10 16 -15 0 -13 -61 -49 -82
-49 -28 0 -22 37 10 54 31 18 35 18 56 10z"/>
</g>
</svg>
