<?xml version="1.0" standalone="no"?>
<!DOCTYPE svg PUBLIC "-//W3C//DTD SVG 20010904//EN"
 "http://www.w3.org/TR/2001/REC-SVG-20010904/DTD/svg10.dtd">
<svg version="1.0" xmlns="http://www.w3.org/2000/svg"
 width="962.000000pt" height="652.000000pt" viewBox="0 0 962.000000 652.000000"
 preserveAspectRatio="xMidYMid meet">

<g transform="translate(0.000000,652.000000) scale(0.100000,-0.100000)"
fill="#000000" stroke="none">
<path d="M4350 5370 c-664 -82 -1213 -450 -1485 -995 -305 -613 -204 -1299
270 -1830 190 -212 505 -413 797 -509 201 -66 328 -87 564 -93 286 -7 467 18
703 98 475 162 872 507 1071 932 106 228 140 376 147 643 6 218 -6 315 -63
511 -31 109 -144 342 -216 445 -292 420 -739 696 -1268 783 -115 19 -417 27
-520 15z m477 -529 c282 -58 490 -168 689 -366 231 -228 340 -469 351 -775 13
-335 -102 -618 -351 -865 -155 -153 -318 -252 -526 -319 -167 -54 -282 -69
-478 -63 -173 5 -251 18 -389 63 -408 133 -730 459 -840 849 -34 122 -43 366
-19 498 70 371 329 694 700 872 138 66 263 100 471 129 68 10 297 -4 392 -23z"/>
<path d="M6184 2458 c-92 -107 -225 -227 -324 -293 -39 -26 -68 -51 -64 -56 5
-8 909 -837 1324 -1213 91 -82 176 -160 190 -173 l26 -23 189 173 c103 94 211
192 238 217 l49 45 -383 350 c-211 193 -541 494 -734 669 -192 175 -368 336
-391 358 l-40 39 -80 -93z"/>
</g>
</svg>
