<?xml version="1.0" standalone="no"?>
<!DOCTYPE svg PUBLIC "-//W3C//DTD SVG 20010904//EN"
 "http://www.w3.org/TR/2001/REC-SVG-20010904/DTD/svg10.dtd">
<svg version="1.0" xmlns="http://www.w3.org/2000/svg"
 width="65.000000pt" height="69.000000pt" viewBox="0 0 65.000000 69.000000"
 preserveAspectRatio="xMidYMid meet">

<g transform="translate(0.000000,69.000000) scale(0.100000,-0.100000)"
fill="#000000" stroke="none">
<path d="M243 674 c-45 -16 -105 -71 -130 -118 -8 -16 -18 -55 -20 -86 -8 -86
17 -152 84 -218 41 -42 61 -73 84 -131 38 -96 55 -121 79 -121 23 0 42 34 76
133 17 49 37 84 68 117 68 72 93 183 65 285 -14 51 -93 130 -146 144 -51 15
-109 13 -160 -5z m172 -33 c47 -22 89 -64 104 -104 32 -85 -3 -230 -68 -276
-23 -17 -36 -38 -51 -89 -26 -85 -52 -138 -65 -133 -12 5 -74 149 -75 172 0 9
-18 29 -39 43 -63 44 -95 100 -99 177 -3 52 0 74 16 105 55 107 175 152 277
105z"/>
<path d="M249 567 c-45 -30 -65 -87 -49 -139 15 -52 95 -121 130 -113 75 19
120 71 120 139 0 53 -17 85 -59 113 -44 30 -98 30 -142 0z m121 -22 c37 -19
50 -43 50 -92 0 -43 -21 -74 -66 -96 -29 -15 -33 -14 -71 8 -53 32 -70 72 -54
125 20 66 77 88 141 55z"/>
</g>
</svg>
