<?xml version="1.0" standalone="no"?>
<!DOCTYPE svg PUBLIC "-//W3C//DTD SVG 20010904//EN"
 "http://www.w3.org/TR/2001/REC-SVG-20010904/DTD/svg10.dtd">
<svg version="1.0" xmlns="http://www.w3.org/2000/svg"
 width="640.000000pt" height="640.000000pt" viewBox="0 0 640.000000 640.000000"
 preserveAspectRatio="xMidYMid meet">

<g transform="translate(0.000000,640.000000) scale(0.100000,-0.100000)"
fill="#000000" stroke="none">
<path d="M825 4411 c-27 -7 -75 -28 -75 -34 0 -1 -9 -27 -19 -56 -13 -41 -24
-57 -42 -62 -161 -47 -259 -83 -276 -102 -11 -12 -30 -40 -42 -61 -18 -31 -19
-41 -9 -48 7 -4 48 -29 91 -54 193 -114 266 -241 267 -460 0 -152 36 -249 121
-333 111 -110 328 -239 503 -300 157 -55 241 -106 337 -203 47 -49 92 -88 100
-88 8 0 22 14 31 30 21 36 53 39 92 9 15 -12 64 -69 109 -127 92 -120 135
-165 175 -186 55 -29 149 -37 404 -34 236 2 257 0 318 -20 93 -31 151 -71 268
-186 118 -115 232 -251 290 -346 38 -62 41 -65 78 -64 45 2 61 20 70 79 8 60
-11 144 -55 231 -35 69 -36 74 -17 74 12 0 41 -9 65 -20 79 -36 111 -21 111
53 0 51 -33 85 -126 128 -65 29 -90 47 -114 80 -56 78 -51 122 13 127 32 3 43
-4 106 -64 45 -42 76 -64 86 -60 22 8 53 64 61 110 10 64 30 92 81 117 71 34
128 31 194 -10 96 -61 156 -91 280 -141 161 -66 219 -103 219 -141 0 -34 23
-49 78 -49 34 0 45 -6 84 -48 24 -26 63 -79 86 -118 53 -88 104 -149 146 -172
23 -12 66 -18 171 -22 129 -5 144 -7 194 -33 62 -33 64 -32 82 53 8 38 9 88 3
160 -4 58 -8 155 -9 216 l0 111 44 88 c83 163 128 205 216 205 62 -1 220 -33
239 -49 18 -15 22 -8 31 54 7 51 31 104 109 239 103 180 116 308 53 511 -21
66 -43 150 -49 187 l-12 66 -125 4 c-123 4 -130 5 -313 66 -102 34 -206 65
-230 68 l-43 6 -29 -69 c-16 -37 -30 -69 -31 -71 -2 -2 -99 22 -216 52 -405
105 -522 111 -596 34 -17 -18 -52 -66 -78 -105 -52 -81 -74 -99 -169 -144 -80
-38 -157 -59 -213 -59 l-43 0 25 56 c14 31 23 60 20 64 -11 18 -100 22 -199
11 -55 -7 -139 -16 -186 -22 -47 -5 -141 -26 -210 -47 -95 -28 -143 -37 -200
-37 -100 0 -137 21 -248 137 -91 95 -128 118 -188 118 -58 0 -102 26 -114 69
-5 20 -10 45 -10 56 0 11 -9 39 -20 63 -19 41 -20 42 -67 42 -26 0 -86 7 -133
15 -124 22 -163 19 -275 -20 -68 -24 -118 -35 -156 -35 -63 0 -75 7 -176 102
-79 74 -125 95 -256 112 -125 16 -151 28 -291 135 -117 89 -173 124 -233 145
-55 19 -121 26 -158 17z m185 -57 c36 -17 121 -74 191 -126 144 -109 181 -126
298 -139 131 -15 154 -25 244 -107 137 -124 180 -133 342 -77 108 38 188 45
282 25 27 -6 76 -12 108 -13 54 -2 61 -5 73 -30 7 -14 16 -50 19 -79 9 -78 47
-113 133 -122 82 -9 107 -26 200 -127 102 -113 148 -134 274 -126 60 4 124 16
191 37 164 51 545 91 545 57 0 -8 -11 -36 -25 -62 -13 -27 -22 -51 -19 -55 14
-13 153 0 213 20 151 51 210 96 294 225 25 39 60 79 78 89 67 40 227 20 584
-74 104 -27 192 -46 196 -42 3 4 19 37 34 73 l28 66 56 -14 c31 -8 132 -39
225 -70 153 -49 181 -55 282 -60 l112 -6 6 -49 c4 -27 23 -99 43 -161 44 -140
54 -249 29 -341 -10 -35 -53 -128 -96 -207 -49 -87 -82 -161 -86 -187 -6 -43
-7 -44 -38 -39 -218 38 -223 39 -264 27 -53 -14 -99 -59 -151 -148 -90 -154
-103 -227 -76 -423 15 -111 16 -140 6 -200 -7 -38 -17 -69 -22 -69 -6 0 -29
10 -52 22 -37 20 -55 22 -152 21 -60 -1 -127 2 -148 8 -56 15 -103 62 -182
184 -86 133 -134 179 -179 172 -43 -6 -66 8 -66 41 0 37 -74 82 -258 157 -79
32 -169 76 -200 98 -101 71 -155 82 -245 51 -60 -20 -104 -70 -112 -128 -4
-24 -16 -59 -27 -76 l-19 -33 -42 41 c-90 87 -148 109 -195 76 -17 -11 -22
-25 -22 -57 0 -74 62 -144 176 -196 65 -31 83 -44 94 -70 17 -41 0 -87 -28
-76 -80 34 -124 47 -146 41 -33 -8 -33 -19 3 -75 59 -92 89 -239 61 -292 -21
-38 -54 -23 -95 42 -91 148 -313 390 -425 463 -133 88 -146 91 -470 91 -393 1
-392 1 -533 184 -96 124 -148 176 -182 185 -29 7 -63 -8 -84 -36 -12 -18 -19
-14 -105 69 -100 98 -172 141 -322 194 -131 46 -223 92 -337 169 -141 95 -198
148 -236 220 -31 57 -34 74 -42 189 -5 69 -14 153 -20 186 -25 137 -98 231
-251 324 -49 29 -88 54 -88 57 0 3 9 22 20 43 15 30 30 43 62 55 80 28 193 64
225 71 31 6 44 25 59 87 17 75 132 89 254 32z"/>
</g>
</svg>
